<svg id="Capa_1" enable-background="new 0 0 506.267 506.267" height="512" viewBox="0 0 506.267 506.267" width="512" xmlns="http://www.w3.org/2000/svg"><g><path d="m462.423 198.37c-13.244 0-20.082-16.13-10.606-25.606 32.619-32.619 32.619-85.694 0-118.313s-85.694-32.619-118.313 0c-5.857 5.858-15.355 5.858-21.213 0s-5.858-15.355 0-21.213c44.315-44.316 116.424-44.316 160.739 0 44.316 44.316 44.316 116.423 0 160.739-2.929 2.929-6.768 4.393-10.607 4.393z" fill="#303a6d"/><path d="m33.237 473.029c-44.316-44.316-44.316-116.423 0-160.739 5.857-5.858 15.355-5.858 21.213 0s5.858 15.355 0 21.213c-32.619 32.619-32.619 85.694 0 118.313s85.694 32.619 118.313 0c5.857-5.858 15.355-5.858 21.213 0s5.858 15.355 0 21.213c-44.314 44.315-116.422 44.318-160.739 0z" fill="#4d578c"/><path d="m499.973 219.163c-133.4 157.63-127.96 151.27-128.75 152.06-4.36 4.36-151.96 128.66-152.06 128.75-5.97 5.06-14.81 4.65-20.3-.84-176.413-176.413 15.6 15.599-191.73-191.73-5.52-5.52-5.88-14.35-.84-20.3 149.219-176.363 123.549-147.279 138.67-160.52 9.3-7.892 133.002-112.56 142.14-120.29 5.95-5.04 14.78-4.68 20.3.84 5.312 5.312 184.749 184.749 191.73 191.73 5.52 5.52 5.88 14.35.84 20.3z" fill="#86bfec"/><path d="m499.973 219.163c-133.4 157.63-127.96 151.27-128.75 152.06-203.33-203.33-232.84-232.29-235.76-236.33 2.313-2.439 102.173-86.759 151.64-128.6 5.95-5.04 14.78-4.68 20.3.84 6.226 6.225 181.712 181.712 191.73 191.73 5.52 5.52 5.88 14.35.84 20.3z" fill="#69b0e8"/><path d="m297.37 117.157c-84.293 108.471-72.083 96.185-180.213 180.213-6.526 5.076-15.953 3.923-21.051-2.637-5.084-6.541-3.903-15.966 2.637-21.051 107.83-83.774 95.291-72.421 174.938-174.938 5.084-6.541 14.51-7.722 21.051-2.637 6.541 5.083 7.722 14.509 2.638 21.05z" fill="#e6ffff"/><path d="m216.145 216.145-21.213-21.213c22.634-22.634 30.099-33.567 78.75-96.188 5.084-6.541 14.51-7.722 21.051-2.637 6.541 5.084 7.722 14.51 2.637 21.051-47.809 61.521-56.881 74.642-81.225 98.987z" fill="#d9f2ff"/><path d="m398.882 218.584c-82.567 107.11-72.107 96.898-180.298 180.298-6.59 5.088-15.999 3.81-21.036-2.722-5.063-6.562-3.847-15.981 2.722-21.037 107.044-82.515 96.121-72.717 174.853-174.853 5.056-6.569 14.474-7.785 21.037-2.722 6.562 5.048 7.785 14.474 2.722 21.036z" fill="#e6ffff"/><path d="m396.16 197.548c6.562 5.049 7.785 14.474 2.722 21.036-46.191 59.922-55.997 74.17-81.063 99.235l-21.213-21.213c22.648-22.648 29.697-33.004 78.517-96.336 5.056-6.569 14.475-7.785 21.037-2.722z" fill="#d9f2ff"/><path d="m348.126 167.87c-83.845 108.326-72.463 96.823-180.256 180.256-6.544 5.056-15.96 3.893-21.05-2.68-5.063-6.548-3.868-15.974 2.687-21.044 107.798-83.44 95.902-72.842 174.896-174.896 5.07-6.555 14.496-7.75 21.044-2.687 6.547 5.078 7.749 14.497 2.679 21.051z" fill="#e6ffff"/><path d="m266.979 266.979-21.213-21.213c23.012-23.012 30.765-34.411 78.637-96.258 5.07-6.555 14.496-7.75 21.044-2.687 6.548 5.077 7.75 14.496 2.68 21.05-47.164 60.933-56.441 74.4-81.148 99.108z" fill="#d9f2ff"/></g></svg>